<svg xmlns:xlink="http://www.w3.org/1999/xlink" xmlns="http://www.w3.org/2000/svg" width="24" height="24" viewBox="0 0 24 24" fill="none">
<path d="M19.6575 3H4.3425C3.99354 2.9979 3.65764 3.13253 3.40671 3.37504C3.15579 3.61755 3.0098 3.94868 3 4.2975V19.65C3.00788 19.9995 3.15327 20.3317 3.40461 20.5746C3.65596 20.8176 3.99297 20.9515 4.3425 20.9475H19.6575C20.007 20.9515 20.344 20.8176 20.5954 20.5746C20.8467 20.3317 20.9921 19.9995 21 19.65V4.2975C20.9902 3.94868 20.8442 3.61755 20.5933 3.37504C20.3424 3.13253 20.0065 2.9979 19.6575 3ZM8.3325 18.3075H5.6925V9.75H8.3325V18.3075ZM7.0425 8.5575C6.63717 8.55762 6.24786 8.39921 5.95777 8.11612C5.66767 7.83303 5.49979 7.44772 5.49 7.0425C5.48266 6.83665 5.5178 6.63149 5.59322 6.43981C5.66864 6.24813 5.78273 6.07404 5.92839 5.92839C6.07404 5.78274 6.24813 5.66864 6.43981 5.59322C6.63149 5.5178 6.83665 5.48266 7.0425 5.49C7.43463 5.51731 7.80181 5.69234 8.06993 5.97978C8.33805 6.26722 8.48716 6.64567 8.48716 7.03875C8.48716 7.43183 8.33805 7.81028 8.06993 8.09772C7.80181 8.38516 7.43463 8.5602 7.0425 8.5875V8.5575ZM18.36 18.255H15.75V14.07C15.75 13.0725 15.75 11.775 14.355 11.775C12.96 11.775 12.75 12.87 12.75 13.9725V18.21H10.08V9.75H12.57V10.875H12.6225C12.8777 10.4318 13.2499 10.0672 13.6983 9.8212C14.1467 9.57518 14.6541 9.45715 15.165 9.48C17.8575 9.48 18.36 11.28 18.36 13.5675V18.255Z" fill="#9E9E9E"/>
</svg>