<svg xmlns:xlink="http://www.w3.org/1999/xlink" xmlns="http://www.w3.org/2000/svg" width="24" height="24" viewBox="0 0 24 24" fill="none">
<path fill-rule="evenodd" clip-rule="evenodd" d="M6.07 4.755C4.92677 4.755 4 5.68177 4 6.825C4 7.96823 4.92677 8.895 6.07 8.895C7.21323 8.895 8.14 7.96823 8.14 6.825C8.14 5.68177 7.21323 4.755 6.07 4.755ZM2.5 6.825C2.5 4.85334 4.09834 3.255 6.07 3.255C8.04166 3.255 9.64 4.85334 9.64 6.825C9.64 8.79666 8.04166 10.395 6.07 10.395C4.09834 10.395 2.5 8.79666 2.5 6.825Z" fill="#000000"/>
<path fill-rule="evenodd" clip-rule="evenodd" d="M18.7838 4.8741C18.5185 4.77786 18.2364 4.73687 17.9547 4.75367C17.5412 4.77833 17.186 4.46312 17.1613 4.04964C17.1367 3.63616 17.4519 3.28099 17.8654 3.25633C18.3512 3.22736 18.8379 3.29804 19.2954 3.46404C19.7529 3.63003 20.1717 3.88783 20.526 4.22159C20.8802 4.55535 21.1625 4.95802 21.3554 5.40486C21.5483 5.85171 21.6479 6.33328 21.6479 6.82C21.6479 7.30672 21.5483 7.78829 21.3554 8.23514C21.1625 8.68198 20.8802 9.08465 20.526 9.41841C20.1717 9.75218 19.7529 10.01 19.2954 10.176C18.8379 10.342 18.3512 10.4126 17.8654 10.3837C17.4519 10.359 17.1367 10.0038 17.1613 9.59036C17.186 9.17688 17.5412 8.86167 17.9547 8.88633C18.2364 8.90313 18.5185 8.86214 18.7838 8.7659C19.0491 8.66965 19.2919 8.52017 19.4973 8.32664C19.7028 8.13312 19.8664 7.89964 19.9783 7.64054C20.0902 7.38145 20.1479 7.10221 20.1479 6.82C20.1479 6.53779 20.0902 6.25855 19.9783 5.99946C19.8664 5.74037 19.7028 5.50688 19.4973 5.31336C19.2919 5.11983 19.0491 4.97035 18.7838 4.8741Z" fill="#000000"/>
<path fill-rule="evenodd" clip-rule="evenodd" d="M5.32001 4.005C5.32001 3.59079 5.65579 3.255 6.07001 3.255H17.91C18.3242 3.255 18.66 3.59079 18.66 4.005C18.66 4.41921 18.3242 4.755 17.91 4.755H6.07001C5.65579 4.755 5.32001 4.41921 5.32001 4.005Z" fill="#000000"/>
<path fill-rule="evenodd" clip-rule="evenodd" d="M5.32001 9.635C5.32001 9.22079 5.65579 8.885 6.07001 8.885H17.91C18.3242 8.885 18.66 9.22079 18.66 9.635C18.66 10.0492 18.3242 10.385 17.91 10.385H6.07001C5.65579 10.385 5.32001 10.0492 5.32001 9.635Z" fill="#000000"/>
<path fill-rule="evenodd" clip-rule="evenodd" d="M3.25 6.075C3.66421 6.075 4 6.41079 4 6.825V19.295H17.16V9.855C17.16 9.44079 17.4958 9.105 17.91 9.105C18.3242 9.105 18.66 9.44079 18.66 9.855V20.045C18.66 20.4592 18.3242 20.795 17.91 20.795H3.25C2.83579 20.795 2.5 20.4592 2.5 20.045V6.825C2.5 6.41079 2.83579 6.075 3.25 6.075Z" fill="#000000"/>
<path fill-rule="evenodd" clip-rule="evenodd" d="M15.05 14.065H6.07001V12.565H15.05V14.065Z" fill="#000000"/>
<path fill-rule="evenodd" clip-rule="evenodd" d="M11.04 17.245H6.07001V15.745H11.04V17.245Z" fill="#000000"/>
</svg>