<svg xmlns:xlink="http://www.w3.org/1999/xlink" xmlns="http://www.w3.org/2000/svg" width="24" height="24" viewBox="0 0 24 24" fill="none">
<path fill-rule="evenodd" clip-rule="evenodd" d="M11.3608 7.06312C11.5659 6.96525 11.8043 6.96565 12.0091 7.06421L18.9691 10.4142C19.2287 10.5392 19.3938 10.8018 19.3938 11.09V20.6C19.3938 21.0142 19.058 21.35 18.6438 21.35H4.6638C4.24959 21.35 3.9138 21.0142 3.9138 20.6V11.09C3.9138 10.8009 4.07992 10.5376 4.34079 10.4131L11.3608 7.06312ZM5.4138 11.5631V19.85H17.8938V11.5614L11.6824 8.57169L5.4138 11.5631Z" fill="#000000"/>
<path fill-rule="evenodd" clip-rule="evenodd" d="M10.9338 2.75C10.9338 2.33579 11.2696 2 11.6838 2H16.8438C17.258 2 17.5938 2.33579 17.5938 2.75V5.64C17.5938 6.05421 17.258 6.39 16.8438 6.39H12.4338V7.74C12.4338 8.15421 12.098 8.49 11.6838 8.49C11.2696 8.49 10.9338 8.15421 10.9338 7.74V2.75ZM12.4338 4.89H16.0938V3.5H12.4338V4.89Z" fill="#000000"/>
<path fill-rule="evenodd" clip-rule="evenodd" d="M9.04379 14.66C9.04379 14.2458 9.37958 13.91 9.79379 13.91H13.5138C13.928 13.91 14.2638 14.2458 14.2638 14.66V20.6C14.2638 21.0142 13.928 21.35 13.5138 21.35C13.0996 21.35 12.7638 21.0142 12.7638 20.6V15.41H10.5438V20.58C10.5438 20.9942 10.208 21.33 9.79379 21.33C9.37958 21.33 9.04379 20.9942 9.04379 20.58V14.66Z" fill="#000000"/>
<path fill-rule="evenodd" clip-rule="evenodd" d="M2 11.5335L4.34 10.4135L4.98759 11.7665L2.64759 12.8865L2 11.5335Z" fill="#000000"/>
<path fill-rule="evenodd" clip-rule="evenodd" d="M20.66 12.8865L18.32 11.7665L18.9676 10.4135L21.3076 11.5335L20.66 12.8865Z" fill="#000000"/>
</svg>